<?xml version="1.0" encoding="UTF-8"?>
<svg width="24" height="24" viewBox="0 0 24 24" fill="none" xmlns="http://www.w3.org/2000/svg">
    <path d="M6.05 8.05C7.95 6.15 10.23 5 12.5 5C16.5 5 20 8.5 20 12.5C20 14.77 18.85 17.05 16.95 18.95L14.12 16.12L11.29 18.95L9.46 17.12L12.29 14.29L9.46 11.46L12.29 8.63L9.46 5.8L6.05 8.05ZM17.66 19.66C19.79 17.54 21 14.82 21 12.5C21 8.36 17.14 5 12.5 5C10.18 5 7.46 6.21 5.34 8.34L9.46 4.22L12.29 7.05L15.12 4.22L16.95 6.05L14.12 8.88L16.95 11.71L14.12 14.54L16.95 17.37L17.66 19.66Z" fill="#2C5530"/>
</svg>
